<svg version="1.1" id="Ebene_1" xmlns="http://www.w3.org/2000/svg" x="0" y="0" viewBox="0 0 72 72" xml:space="preserve" enable-background="new 0 0 48 48" height="72" width="72"><title>Traffic 72px</title><g class="nc-icon-wrapper" stroke-width="2" fill="#00afaa" stroke="#00afaa"><path class="st0" d="M30 48l13.5 3 13.5-3m-25.5 10.5l-3 3h-4.5c-1.91 0-3-1.17-3-3v-12l7.81-8.82c0.89-1.06 2.39-1.68 3.79-1.68h20.29c1.41 0 2.9 0.61 3.78 1.68l7.83 8.82v12c0 1.83-1.09 3-3 3h-4.5l-3-3h-22.5z m36-12h-3m-43.5 0h-3" fill="none" stroke="#0f1621" stroke-linecap="square" stroke-miterlimit="10"/><path class="st1" d="M16.5 25.5l13.5 3 13.5-3m-19.5 10.5h-6l-3 3h-4.5c-1.91 0-3-1.17-3-3v-12l7.81-8.82c0.88-1.07 2.38-1.68 3.78-1.68h20.3c1.41 0 2.9 0.61 3.78 1.68l7.83 8.82v7.5m3-7.5h-3m-43.5 0h-3" fill="none" stroke-linecap="square" stroke-miterlimit="10" data-color="color-2"/></g></svg>