<svg version="1.1" id="Ebene_1" xmlns="http://www.w3.org/2000/svg" x="0" y="0" viewBox="0 0 72 72" xml:space="preserve" enable-background="new 0 0 48 48" height="72" width="72"><title>Remote Diagnostic Support 72px</title><g class="nc-icon-wrapper" stroke-width="2" fill="#00afaa" stroke="#00afaa"><path class="st0" d="M16.5 43.5h-2.25m10.5 2.25l11.25 2.25 11.25-2.25m-2.25-12.75c1.05 0 2.55 0.6 3.3 1.65l6.75 7.8c0.3 0.45 0.45 1.35 0.45 1.8v9.75c0 1.8-1.35 3-3 3h-3l-3-3h-21l-3 3h-3c-1.65 0-3-1.2-3-3v-9.75c0-0.6 0.15-1.35 0.6-1.8l6.6-7.8c0.75-1.05 2.25-1.65 3.3-1.65h18z m10.5 10.5h2.25m-53.25 21v-1.5h63v1.5c0 1.65-1.35 3-3 3h-57c-1.65 0-3-1.35-3-3z m46.5-42h9c1.8 0 3 1.35 3 3v33m-54 0v-33c0-1.65 1.2-3 3-3h9" fill="none" stroke="#0f1621" stroke-linecap="square" stroke-miterlimit="10"/><path class="st1" d="M46.5 27h-21v-22.5m4.5 6v12m4.5 0v-9m4.5-7.5v16.5m4.5 0v-6" fill="none" stroke-linecap="square" stroke-miterlimit="10" data-color="color-2"/></g></svg>