<svg version="1.1" id="Ebene_1" xmlns="http://www.w3.org/2000/svg" x="0" y="0" viewBox="0 0 72 72" xml:space="preserve" enable-background="new 0 0 48 48" height="72" width="72" data-color="color-2"><title>Service delivery 72px</title><g class="nc-icon-wrapper" stroke-width="2" fill="#00afaa" stroke="#00afaa"><path class="st0" d="M7.5 48h-3m15 3l16.5 3 16.5-3m-30-18c-1.8 0-3.3 0.75-4.5 2.25l-9.75 11.25c-0.45 0.6-0.75 1.5-0.75 2.25v14.25c0 2.55 1.95 4.5 4.5 4.5h4.5l4.5-4.5h30l4.5 4.5h4.5c2.55 0 4.5-1.95 4.5-4.5v-14.25c0-0.75-0.3-1.65-0.75-2.25l-9.75-11.25c-1.2-1.5-2.7-2.25-4.5-2.25h-27z m42 15h3" fill="none" stroke="#0f1621" stroke-linecap="square" stroke-miterlimit="10"/><path class="st1" d="M38.7 28.5c2.55 0 4.8-1.8 4.8-4.8 0-2.55-1.95-4.2-4.5-4.2-0.75 0-1.65 0.3-2.4 0.75v-0.6c0-4.95-3.9-9.15-8.85-9.15-3.3 0-6.3 1.8-7.8 4.5h-1.05c-3.9 0-6.9 2.85-6.9 6.6s3.15 6.9 6.9 6.9h19.8z m7.8-10.5l-3-3 3-3m13.5 13.5l-3 3-3-3m3 1.5v-6c0-3.3-2.7-6-6-6h-6" fill="none" stroke-linecap="square" stroke-miterlimit="10" data-color="color-2"/></g></svg>